<mxfile host="app.diagrams.net" modified="2023-05-26T19:36:32.197Z" agent="Mozilla/5.0 (Macintosh; Intel Mac OS X 10_15_7) AppleWebKit/605.1.15 (KHTML, like Gecko) Version/16.5 Safari/605.1.15" etag="Yq1j7Qr4e85YI_57jneN" version="21.3.4" type="device">
  <diagram id="C5RBs43oDa-KdzZeNtuy" name="Page-1">
    <mxGraphModel dx="445" dy="1005" grid="1" gridSize="10" guides="1" tooltips="1" connect="1" arrows="1" fold="1" page="1" pageScale="1" pageWidth="827" pageHeight="2000" math="0" shadow="0">
      <root>
        <mxCell id="WIyWlLk6GJQsqaUBKTNV-0" />
        <mxCell id="WIyWlLk6GJQsqaUBKTNV-1" parent="WIyWlLk6GJQsqaUBKTNV-0" />
        <mxCell id="bD6W7oSRf1samodwNwaf-6" style="edgeStyle=orthogonalEdgeStyle;rounded=0;orthogonalLoop=1;jettySize=auto;html=1;exitX=0.5;exitY=1;exitDx=0;exitDy=0;entryX=0.5;entryY=0;entryDx=0;entryDy=0;" edge="1" parent="WIyWlLk6GJQsqaUBKTNV-1" source="bD6W7oSRf1samodwNwaf-0" target="bD6W7oSRf1samodwNwaf-5">
          <mxGeometry relative="1" as="geometry" />
        </mxCell>
        <mxCell id="bD6W7oSRf1samodwNwaf-0" value="Start" style="ellipse;whiteSpace=wrap;html=1;" vertex="1" parent="WIyWlLk6GJQsqaUBKTNV-1">
          <mxGeometry x="220" width="120" height="80" as="geometry" />
        </mxCell>
        <mxCell id="bD6W7oSRf1samodwNwaf-9" style="edgeStyle=orthogonalEdgeStyle;rounded=0;orthogonalLoop=1;jettySize=auto;html=1;exitX=0.5;exitY=1;exitDx=0;exitDy=0;entryX=0.5;entryY=0;entryDx=0;entryDy=0;" edge="1" parent="WIyWlLk6GJQsqaUBKTNV-1" source="bD6W7oSRf1samodwNwaf-1" target="bD6W7oSRf1samodwNwaf-8">
          <mxGeometry relative="1" as="geometry" />
        </mxCell>
        <mxCell id="bD6W7oSRf1samodwNwaf-1" value="Solid Green and Advanced Left Green Arrow turn on for 1 second" style="rounded=1;whiteSpace=wrap;html=1;" vertex="1" parent="WIyWlLk6GJQsqaUBKTNV-1">
          <mxGeometry x="220" y="283" width="120" height="60" as="geometry" />
        </mxCell>
        <mxCell id="bD6W7oSRf1samodwNwaf-49" style="edgeStyle=orthogonalEdgeStyle;rounded=0;orthogonalLoop=1;jettySize=auto;html=1;exitX=0.5;exitY=1;exitDx=0;exitDy=0;entryX=0.5;entryY=0;entryDx=0;entryDy=0;" edge="1" parent="WIyWlLk6GJQsqaUBKTNV-1" source="bD6W7oSRf1samodwNwaf-5" target="bD6W7oSRf1samodwNwaf-48">
          <mxGeometry relative="1" as="geometry" />
        </mxCell>
        <mxCell id="bD6W7oSRf1samodwNwaf-5" value="Start a Timer" style="rounded=1;whiteSpace=wrap;html=1;" vertex="1" parent="WIyWlLk6GJQsqaUBKTNV-1">
          <mxGeometry x="220" y="110" width="120" height="60" as="geometry" />
        </mxCell>
        <mxCell id="bD6W7oSRf1samodwNwaf-10" style="edgeStyle=orthogonalEdgeStyle;rounded=0;orthogonalLoop=1;jettySize=auto;html=1;exitX=1;exitY=0.5;exitDx=0;exitDy=0;entryX=1;entryY=0.5;entryDx=0;entryDy=0;" edge="1" parent="WIyWlLk6GJQsqaUBKTNV-1" source="bD6W7oSRf1samodwNwaf-8" target="bD6W7oSRf1samodwNwaf-1">
          <mxGeometry relative="1" as="geometry">
            <Array as="points">
              <mxPoint x="390" y="423" />
              <mxPoint x="390" y="313" />
            </Array>
          </mxGeometry>
        </mxCell>
        <mxCell id="bD6W7oSRf1samodwNwaf-11" value="No" style="edgeLabel;html=1;align=center;verticalAlign=middle;resizable=0;points=[];" vertex="1" connectable="0" parent="bD6W7oSRf1samodwNwaf-10">
          <mxGeometry x="-0.1135" y="-1" relative="1" as="geometry">
            <mxPoint as="offset" />
          </mxGeometry>
        </mxCell>
        <mxCell id="bD6W7oSRf1samodwNwaf-13" value="Yes" style="edgeStyle=orthogonalEdgeStyle;rounded=0;orthogonalLoop=1;jettySize=auto;html=1;exitX=0.5;exitY=1;exitDx=0;exitDy=0;entryX=0.5;entryY=0;entryDx=0;entryDy=0;" edge="1" parent="WIyWlLk6GJQsqaUBKTNV-1" source="bD6W7oSRf1samodwNwaf-8" target="bD6W7oSRf1samodwNwaf-12">
          <mxGeometry relative="1" as="geometry" />
        </mxCell>
        <mxCell id="bD6W7oSRf1samodwNwaf-8" value="Has the Timer been running for 15 seconds?" style="rhombus;whiteSpace=wrap;html=1;" vertex="1" parent="WIyWlLk6GJQsqaUBKTNV-1">
          <mxGeometry x="195" y="383" width="170" height="80" as="geometry" />
        </mxCell>
        <mxCell id="bD6W7oSRf1samodwNwaf-15" style="edgeStyle=orthogonalEdgeStyle;rounded=0;orthogonalLoop=1;jettySize=auto;html=1;exitX=0.5;exitY=1;exitDx=0;exitDy=0;entryX=0.5;entryY=0;entryDx=0;entryDy=0;" edge="1" parent="WIyWlLk6GJQsqaUBKTNV-1" source="bD6W7oSRf1samodwNwaf-12" target="bD6W7oSRf1samodwNwaf-14">
          <mxGeometry relative="1" as="geometry" />
        </mxCell>
        <mxCell id="bD6W7oSRf1samodwNwaf-12" value="Reset Timer" style="rounded=1;whiteSpace=wrap;html=1;" vertex="1" parent="WIyWlLk6GJQsqaUBKTNV-1">
          <mxGeometry x="220" y="503" width="120" height="60" as="geometry" />
        </mxCell>
        <mxCell id="bD6W7oSRf1samodwNwaf-19" style="edgeStyle=orthogonalEdgeStyle;rounded=0;orthogonalLoop=1;jettySize=auto;html=1;exitX=0.5;exitY=1;exitDx=0;exitDy=0;entryX=0.5;entryY=0;entryDx=0;entryDy=0;" edge="1" parent="WIyWlLk6GJQsqaUBKTNV-1" source="bD6W7oSRf1samodwNwaf-14" target="bD6W7oSRf1samodwNwaf-16">
          <mxGeometry relative="1" as="geometry" />
        </mxCell>
        <mxCell id="bD6W7oSRf1samodwNwaf-14" value="Solid Green and Advanced Left Amber Arrow turn on for 1 second" style="rounded=1;whiteSpace=wrap;html=1;" vertex="1" parent="WIyWlLk6GJQsqaUBKTNV-1">
          <mxGeometry x="220" y="603" width="120" height="60" as="geometry" />
        </mxCell>
        <mxCell id="bD6W7oSRf1samodwNwaf-17" style="edgeStyle=orthogonalEdgeStyle;rounded=0;orthogonalLoop=1;jettySize=auto;html=1;exitX=1;exitY=0.5;exitDx=0;exitDy=0;entryX=1;entryY=0.5;entryDx=0;entryDy=0;" edge="1" parent="WIyWlLk6GJQsqaUBKTNV-1" source="bD6W7oSRf1samodwNwaf-16" target="bD6W7oSRf1samodwNwaf-14">
          <mxGeometry relative="1" as="geometry" />
        </mxCell>
        <mxCell id="bD6W7oSRf1samodwNwaf-18" value="No" style="edgeLabel;html=1;align=center;verticalAlign=middle;resizable=0;points=[];" vertex="1" connectable="0" parent="bD6W7oSRf1samodwNwaf-17">
          <mxGeometry x="-0.2229" y="-2" relative="1" as="geometry">
            <mxPoint as="offset" />
          </mxGeometry>
        </mxCell>
        <mxCell id="bD6W7oSRf1samodwNwaf-21" value="Yes" style="edgeStyle=orthogonalEdgeStyle;rounded=0;orthogonalLoop=1;jettySize=auto;html=1;exitX=0.5;exitY=1;exitDx=0;exitDy=0;entryX=0.5;entryY=0;entryDx=0;entryDy=0;" edge="1" parent="WIyWlLk6GJQsqaUBKTNV-1" source="bD6W7oSRf1samodwNwaf-16" target="bD6W7oSRf1samodwNwaf-22">
          <mxGeometry relative="1" as="geometry">
            <mxPoint x="280" y="823" as="targetPoint" />
          </mxGeometry>
        </mxCell>
        <mxCell id="bD6W7oSRf1samodwNwaf-16" value="Has the Timer been running for 5 seconds?" style="rhombus;whiteSpace=wrap;html=1;" vertex="1" parent="WIyWlLk6GJQsqaUBKTNV-1">
          <mxGeometry x="195" y="703" width="170" height="80" as="geometry" />
        </mxCell>
        <mxCell id="bD6W7oSRf1samodwNwaf-24" style="edgeStyle=orthogonalEdgeStyle;rounded=0;orthogonalLoop=1;jettySize=auto;html=1;exitX=0.5;exitY=1;exitDx=0;exitDy=0;entryX=0.5;entryY=0;entryDx=0;entryDy=0;" edge="1" parent="WIyWlLk6GJQsqaUBKTNV-1" source="bD6W7oSRf1samodwNwaf-22" target="bD6W7oSRf1samodwNwaf-23">
          <mxGeometry relative="1" as="geometry" />
        </mxCell>
        <mxCell id="bD6W7oSRf1samodwNwaf-22" value="Reset Timer" style="rounded=1;whiteSpace=wrap;html=1;" vertex="1" parent="WIyWlLk6GJQsqaUBKTNV-1">
          <mxGeometry x="220" y="823" width="120" height="60" as="geometry" />
        </mxCell>
        <mxCell id="bD6W7oSRf1samodwNwaf-26" style="edgeStyle=orthogonalEdgeStyle;rounded=0;orthogonalLoop=1;jettySize=auto;html=1;exitX=0.5;exitY=1;exitDx=0;exitDy=0;entryX=0.5;entryY=0;entryDx=0;entryDy=0;" edge="1" parent="WIyWlLk6GJQsqaUBKTNV-1" source="bD6W7oSRf1samodwNwaf-23" target="bD6W7oSRf1samodwNwaf-25">
          <mxGeometry relative="1" as="geometry" />
        </mxCell>
        <mxCell id="bD6W7oSRf1samodwNwaf-23" value="Solid Green turns on for 1 second" style="rounded=1;whiteSpace=wrap;html=1;" vertex="1" parent="WIyWlLk6GJQsqaUBKTNV-1">
          <mxGeometry x="220" y="923" width="120" height="60" as="geometry" />
        </mxCell>
        <mxCell id="bD6W7oSRf1samodwNwaf-27" style="edgeStyle=orthogonalEdgeStyle;rounded=0;orthogonalLoop=1;jettySize=auto;html=1;exitX=1;exitY=0.5;exitDx=0;exitDy=0;entryX=1;entryY=0.5;entryDx=0;entryDy=0;" edge="1" parent="WIyWlLk6GJQsqaUBKTNV-1" source="bD6W7oSRf1samodwNwaf-25" target="bD6W7oSRf1samodwNwaf-23">
          <mxGeometry relative="1" as="geometry" />
        </mxCell>
        <mxCell id="bD6W7oSRf1samodwNwaf-28" value="No" style="edgeLabel;html=1;align=center;verticalAlign=middle;resizable=0;points=[];" vertex="1" connectable="0" parent="bD6W7oSRf1samodwNwaf-27">
          <mxGeometry x="-0.1314" y="-1" relative="1" as="geometry">
            <mxPoint as="offset" />
          </mxGeometry>
        </mxCell>
        <mxCell id="bD6W7oSRf1samodwNwaf-31" style="edgeStyle=orthogonalEdgeStyle;rounded=0;orthogonalLoop=1;jettySize=auto;html=1;exitX=0.5;exitY=1;exitDx=0;exitDy=0;entryX=0.5;entryY=0;entryDx=0;entryDy=0;" edge="1" parent="WIyWlLk6GJQsqaUBKTNV-1" source="bD6W7oSRf1samodwNwaf-25" target="bD6W7oSRf1samodwNwaf-30">
          <mxGeometry relative="1" as="geometry" />
        </mxCell>
        <mxCell id="bD6W7oSRf1samodwNwaf-25" value="Has the Timer been running for 45 seconds?" style="rhombus;whiteSpace=wrap;html=1;" vertex="1" parent="WIyWlLk6GJQsqaUBKTNV-1">
          <mxGeometry x="195" y="1023" width="170" height="80" as="geometry" />
        </mxCell>
        <mxCell id="bD6W7oSRf1samodwNwaf-35" style="edgeStyle=orthogonalEdgeStyle;rounded=0;orthogonalLoop=1;jettySize=auto;html=1;exitX=0.5;exitY=1;exitDx=0;exitDy=0;entryX=0.5;entryY=0;entryDx=0;entryDy=0;" edge="1" parent="WIyWlLk6GJQsqaUBKTNV-1" source="bD6W7oSRf1samodwNwaf-29" target="bD6W7oSRf1samodwNwaf-33">
          <mxGeometry relative="1" as="geometry" />
        </mxCell>
        <mxCell id="bD6W7oSRf1samodwNwaf-29" value="Solid Amber turns on for 1 second" style="rounded=1;whiteSpace=wrap;html=1;" vertex="1" parent="WIyWlLk6GJQsqaUBKTNV-1">
          <mxGeometry x="220" y="1263" width="120" height="60" as="geometry" />
        </mxCell>
        <mxCell id="bD6W7oSRf1samodwNwaf-32" style="edgeStyle=orthogonalEdgeStyle;rounded=0;orthogonalLoop=1;jettySize=auto;html=1;exitX=0.5;exitY=1;exitDx=0;exitDy=0;entryX=0.5;entryY=0;entryDx=0;entryDy=0;" edge="1" parent="WIyWlLk6GJQsqaUBKTNV-1" source="bD6W7oSRf1samodwNwaf-30" target="bD6W7oSRf1samodwNwaf-29">
          <mxGeometry relative="1" as="geometry" />
        </mxCell>
        <mxCell id="bD6W7oSRf1samodwNwaf-30" value="Reset Timer" style="rounded=1;whiteSpace=wrap;html=1;" vertex="1" parent="WIyWlLk6GJQsqaUBKTNV-1">
          <mxGeometry x="220" y="1153" width="120" height="60" as="geometry" />
        </mxCell>
        <mxCell id="bD6W7oSRf1samodwNwaf-34" style="edgeStyle=orthogonalEdgeStyle;rounded=0;orthogonalLoop=1;jettySize=auto;html=1;exitX=1;exitY=0.5;exitDx=0;exitDy=0;entryX=1;entryY=0.5;entryDx=0;entryDy=0;" edge="1" parent="WIyWlLk6GJQsqaUBKTNV-1" source="bD6W7oSRf1samodwNwaf-33" target="bD6W7oSRf1samodwNwaf-29">
          <mxGeometry relative="1" as="geometry" />
        </mxCell>
        <mxCell id="bD6W7oSRf1samodwNwaf-36" value="No" style="edgeLabel;html=1;align=center;verticalAlign=middle;resizable=0;points=[];" vertex="1" connectable="0" parent="bD6W7oSRf1samodwNwaf-34">
          <mxGeometry x="-0.1313" y="-2" relative="1" as="geometry">
            <mxPoint as="offset" />
          </mxGeometry>
        </mxCell>
        <mxCell id="bD6W7oSRf1samodwNwaf-44" value="Yes" style="edgeStyle=orthogonalEdgeStyle;rounded=0;orthogonalLoop=1;jettySize=auto;html=1;exitX=0.5;exitY=1;exitDx=0;exitDy=0;entryX=0.5;entryY=0;entryDx=0;entryDy=0;" edge="1" parent="WIyWlLk6GJQsqaUBKTNV-1" source="bD6W7oSRf1samodwNwaf-33" target="bD6W7oSRf1samodwNwaf-40">
          <mxGeometry relative="1" as="geometry" />
        </mxCell>
        <mxCell id="bD6W7oSRf1samodwNwaf-33" value="Has the Timer been running for 10 seconds?" style="rhombus;whiteSpace=wrap;html=1;" vertex="1" parent="WIyWlLk6GJQsqaUBKTNV-1">
          <mxGeometry x="195" y="1373" width="170" height="80" as="geometry" />
        </mxCell>
        <mxCell id="bD6W7oSRf1samodwNwaf-37" style="edgeStyle=orthogonalEdgeStyle;rounded=0;orthogonalLoop=1;jettySize=auto;html=1;exitX=0.5;exitY=1;exitDx=0;exitDy=0;entryX=0.5;entryY=0;entryDx=0;entryDy=0;" edge="1" parent="WIyWlLk6GJQsqaUBKTNV-1" source="bD6W7oSRf1samodwNwaf-38" target="bD6W7oSRf1samodwNwaf-43">
          <mxGeometry relative="1" as="geometry" />
        </mxCell>
        <mxCell id="bD6W7oSRf1samodwNwaf-38" value="Solid Red turns on for 1 second" style="rounded=1;whiteSpace=wrap;html=1;" vertex="1" parent="WIyWlLk6GJQsqaUBKTNV-1">
          <mxGeometry x="220" y="1613" width="120" height="60" as="geometry" />
        </mxCell>
        <mxCell id="bD6W7oSRf1samodwNwaf-39" style="edgeStyle=orthogonalEdgeStyle;rounded=0;orthogonalLoop=1;jettySize=auto;html=1;exitX=0.5;exitY=1;exitDx=0;exitDy=0;entryX=0.5;entryY=0;entryDx=0;entryDy=0;" edge="1" parent="WIyWlLk6GJQsqaUBKTNV-1" source="bD6W7oSRf1samodwNwaf-40" target="bD6W7oSRf1samodwNwaf-38">
          <mxGeometry relative="1" as="geometry" />
        </mxCell>
        <mxCell id="bD6W7oSRf1samodwNwaf-40" value="Reset Timer" style="rounded=1;whiteSpace=wrap;html=1;" vertex="1" parent="WIyWlLk6GJQsqaUBKTNV-1">
          <mxGeometry x="220" y="1503" width="120" height="60" as="geometry" />
        </mxCell>
        <mxCell id="bD6W7oSRf1samodwNwaf-41" style="edgeStyle=orthogonalEdgeStyle;rounded=0;orthogonalLoop=1;jettySize=auto;html=1;exitX=1;exitY=0.5;exitDx=0;exitDy=0;entryX=1;entryY=0.5;entryDx=0;entryDy=0;" edge="1" parent="WIyWlLk6GJQsqaUBKTNV-1" source="bD6W7oSRf1samodwNwaf-43" target="bD6W7oSRf1samodwNwaf-38">
          <mxGeometry relative="1" as="geometry" />
        </mxCell>
        <mxCell id="bD6W7oSRf1samodwNwaf-42" value="No" style="edgeLabel;html=1;align=center;verticalAlign=middle;resizable=0;points=[];" vertex="1" connectable="0" parent="bD6W7oSRf1samodwNwaf-41">
          <mxGeometry x="-0.1313" y="-2" relative="1" as="geometry">
            <mxPoint as="offset" />
          </mxGeometry>
        </mxCell>
        <mxCell id="bD6W7oSRf1samodwNwaf-45" style="edgeStyle=orthogonalEdgeStyle;rounded=0;orthogonalLoop=1;jettySize=auto;html=1;exitX=0.5;exitY=1;exitDx=0;exitDy=0;entryX=0;entryY=0.5;entryDx=0;entryDy=0;" edge="1" parent="WIyWlLk6GJQsqaUBKTNV-1" source="bD6W7oSRf1samodwNwaf-43" target="bD6W7oSRf1samodwNwaf-48">
          <mxGeometry relative="1" as="geometry">
            <mxPoint x="160" y="180" as="targetPoint" />
            <Array as="points">
              <mxPoint x="280" y="1840" />
              <mxPoint x="140" y="1840" />
              <mxPoint x="140" y="230" />
            </Array>
          </mxGeometry>
        </mxCell>
        <mxCell id="bD6W7oSRf1samodwNwaf-47" value="Yes" style="edgeLabel;html=1;align=center;verticalAlign=middle;resizable=0;points=[];" vertex="1" connectable="0" parent="bD6W7oSRf1samodwNwaf-45">
          <mxGeometry x="-0.9549" y="3" relative="1" as="geometry">
            <mxPoint x="5" y="-23" as="offset" />
          </mxGeometry>
        </mxCell>
        <mxCell id="bD6W7oSRf1samodwNwaf-43" value="Has the Timer been running for 75 seconds?" style="rhombus;whiteSpace=wrap;html=1;" vertex="1" parent="WIyWlLk6GJQsqaUBKTNV-1">
          <mxGeometry x="195" y="1723" width="170" height="80" as="geometry" />
        </mxCell>
        <mxCell id="bD6W7oSRf1samodwNwaf-50" style="edgeStyle=orthogonalEdgeStyle;rounded=0;orthogonalLoop=1;jettySize=auto;html=1;exitX=0.5;exitY=1;exitDx=0;exitDy=0;entryX=0.5;entryY=0;entryDx=0;entryDy=0;" edge="1" parent="WIyWlLk6GJQsqaUBKTNV-1" source="bD6W7oSRf1samodwNwaf-48" target="bD6W7oSRf1samodwNwaf-1">
          <mxGeometry relative="1" as="geometry" />
        </mxCell>
        <mxCell id="bD6W7oSRf1samodwNwaf-48" value="Reset Timer" style="rounded=1;whiteSpace=wrap;html=1;" vertex="1" parent="WIyWlLk6GJQsqaUBKTNV-1">
          <mxGeometry x="220" y="200" width="120" height="60" as="geometry" />
        </mxCell>
      </root>
    </mxGraphModel>
  </diagram>
</mxfile>
